<?xml version="1.0" encoding="UTF-8" standalone="no"?>
<!-- Created with Inkscape (http://www.inkscape.org/) -->

<svg
   xmlns:dc="http://purl.org/dc/elements/1.1/"
   xmlns:cc="http://creativecommons.org/ns#"
   xmlns:rdf="http://www.w3.org/1999/02/22-rdf-syntax-ns#"
   xmlns:svg="http://www.w3.org/2000/svg"
   xmlns="http://www.w3.org/2000/svg"
   xmlns:sodipodi="http://sodipodi.sourceforge.net/DTD/sodipodi-0.dtd"
   xmlns:inkscape="http://www.inkscape.org/namespaces/inkscape"
   version="1.1"
   id="svg2"
   width="841mm"
   height="1189mm"
   viewBox="0 0 3178.5827 4493.8584"
   sodipodi:docname="fancyfist.svg"
   inkscape:version="0.92.5 (2060ec1f9f, 2020-04-08)">
  <metadata
     id="metadata8">
    <rdf:RDF>
      <cc:Work
         rdf:about="">
        <dc:format>image/svg+xml</dc:format>
        <dc:type
           rdf:resource="http://purl.org/dc/dcmitype/StillImage" />
        <dc:title></dc:title>
      </cc:Work>
    </rdf:RDF>
  </metadata>
  <defs
     id="defs6" />
  <sodipodi:namedview
     pagecolor="#ffffff"
     bordercolor="#666666"
     borderopacity="1"
     objecttolerance="10"
     gridtolerance="10"
     guidetolerance="10"
     inkscape:pageopacity="0"
     inkscape:pageshadow="2"
     inkscape:window-width="1920"
     inkscape:window-height="1037"
     id="namedview4"
     showgrid="false"
     inkscape:zoom="0.069942499"
     inkscape:cx="-3684.9305"
     inkscape:cy="-912.35338"
     inkscape:window-x="0"
     inkscape:window-y="43"
     inkscape:window-maximized="0"
     inkscape:current-layer="svg2"
     units="mm" />
  <path
     style="fill:#ffffff;stroke-width:8.58678436"
     d="m 1421.7949,3885.4875 c -2.4606,-11.6907 -12.6256,-63.7602 -22.5904,-115.7102 -21.7666,-113.4703 -60.0961,-231.8413 -95.9263,-296.2444 -28.0365,-50.3941 -76.9565,-119.51 -84.8992,-119.9494 -2.6408,-0.1345 -18.0049,86.4453 -34.143,192.4258 -16.1386,105.98 -30.4578,191.5761 -31.8201,190.2138 -1.3629,-1.3629 -16.0646,-67.7881 -32.6706,-147.6107 -38.6871,-185.9632 -66.857,-289.5934 -103.5796,-381.0417 -37.14952,-92.5116 -86.75941,-180.7565 -91.8468,-163.3771 -2.0744,7.0843 -10.00896,34.3044 -17.6332,60.4886 -12.5551,43.1201 -86.65412,205.7017 -93.75132,205.7017 -1.61887,0 5.64291,-76.3148 16.13812,-169.589 32.40157,-287.9724 40.49859,-418.3112 41.47475,-667.6223 l 0.9412,-240.4304 30.92149,-77.2808 c 22.14513,-55.3475 39.00711,-122.7774 59.41189,-237.5793 l 28.49099,-160.2986 51.76178,84.7189 c 28.469,46.5955 52.6805,83.7999 53.804,82.6768 1.1246,-1.125 -7.0402,-31.4781 -18.1405,-67.4551 -53.9745,-174.9388 -56.6711,-318.1549 -11.4471,-607.9688 17.3186,-110.9839 36.9231,-242.7307 43.5658,-292.77093 28.2226,-212.60195 113.9812,-276.20519 270.9727,-200.96876 34.4916,16.52971 64.5923,30.05346 66.8904,30.05346 14.4031,0 -39.325,-55.48257 -72.6867,-75.05962 -33.3347,-19.56132 -53.4661,-24.34805 -117.5071,-27.94021 l -77.2814,-4.33489 26.1795,-26.83934 c 21.3491,-21.88857 37.5566,-28.75935 87.847,-37.24148 68.3118,-11.52244 120.9611,-4.4404 188.2447,25.32265 50.7282,22.43935 88.353,28.61843 114.1883,18.75253 l 21.4669,-8.19815 -25.7604,-5.79627 c -14.1681,-3.18765 -56.8223,-15.06619 -94.7871,-26.39716 -66.5878,-19.87283 -110.9382,-26.91195 -208.8335,-33.14432 -63.167,-4.02134 -76.161,-26.43865 -44.7372,-77.18075 21.0813,-34.04143 57.7387,-55.62564 105.0732,-61.86766 20.4611,-2.69779 108.2946,3.1985 195.1859,13.10374 86.8912,9.90465 159.9861,16.00683 162.4332,13.55916 2.4472,-2.44707 -1.9125,-4.44886 -9.6884,-4.44886 -29.5285,0 -84.0457,-27.79941 -81.4055,-41.51033 3.2868,-17.06584 32.308,-25.26936 92.681,-26.19981 25.9751,-0.398 130.5991,-11.03304 232.4986,-23.62847 101.8988,-12.59491 195.7222,-20.27727 208.4957,-17.07127 28.9287,7.26071 53.7597,46.95739 65.8734,105.30973 l 9.2512,44.56303 -36.6052,34.14467 -36.6054,34.14515 -27.0715,-20.64835 c -14.8894,-11.35684 -44.9912,-26.75434 -66.8922,-34.21668 -48.7478,-16.6103 -50.5474,-30.00077 -13.0541,-97.12785 l 26.7661,-47.92113 -27.5321,25.76044 c -15.1431,14.16806 -36.8117,41.49405 -48.1529,60.72478 l -20.6209,34.96489 -45.1611,-6.43087 c -64.4836,-9.18242 -118.9663,-8.67419 -96.6813,0.90189 9.4453,4.05854 28.9201,7.65118 43.2764,7.98308 69.3801,1.60373 182.4911,44.592 232.222,88.25624 51.6026,45.30791 58.7725,81.09612 47.3506,236.34831 -11.6241,158.00636 -27.3852,202.10511 -92.8149,259.69921 -21.7176,19.1155 -40.6599,33.5821 -42.0954,32.1466 -5.1939,-5.1938 73.2853,-205.87916 86.0076,-219.93689 12.5847,-13.9056 39.4714,-71.05651 39.4714,-83.90096 0,-3.43944 -12.7504,6.10433 -28.334,21.20879 l -28.3346,27.46262 -18.2947,-37.65661 c -12.4336,-25.5916 -32.1005,-46.60249 -61.3809,-65.57605 -39.7984,-25.78784 -42.6973,-29.95976 -37.9897,-54.6688 2.8032,-14.71235 14.5053,-45.58806 26.0041,-68.61314 l 20.9076,-41.86297 -27.2137,19.37795 c -25.3984,18.08504 -72.1455,74.923 -79.3175,96.4383 -2.1492,6.44648 -31.9895,2.28315 -92.6353,-12.92408 -49.2055,-12.33836 -90.3345,-21.5637 -91.3972,-20.50099 -1.0622,1.06176 52.9424,26.52151 120.0119,56.57485 67.0695,30.05346 133.0467,64.69563 146.6162,76.98285 29.0794,26.3316 48.316,67.43908 48.316,103.24935 0,27.60246 -55.3443,190.11328 -83.3072,244.61738 l -17.054,33.2422 3.9368,-47.4742 c 9.1158,-109.9261 -21.8922,-140.9319 -221.0599,-221.04273 -82.0797,-33.01472 -150.5601,-58.70253 -152.1794,-57.08367 -1.6184,1.61886 57.4972,34.95786 131.3687,74.08668 153.588,81.35212 188.3926,108.16772 200.9569,154.82882 17.4622,64.8493 -37.5878,210.555 -101.1281,267.665 -79.0148,71.0178 -206.2315,77.1641 -237.4052,11.4692 -27.8181,-58.6223 -12.3658,-94.3778 44.662,-103.3434 17.5579,-2.7602 43.5163,-8.3649 57.6844,-12.4551 21.1281,-6.0996 16.6748,-7.2333 -24.7671,-6.3067 -47.3806,1.0607 -52.0189,-0.6571 -74.4722,-27.5519 -13.1698,-15.775 -32.4893,-51.5289 -42.9318,-79.4525 -10.443,-27.9242 -20.7177,-49.0404 -22.833,-46.9256 -6.1506,6.1506 29.7479,125.2315 44.5731,147.858 13.4201,20.4811 13.3184,20.5903 -18.9063,20.4574 -17.8188,-0.081 -54.9624,-5.4433 -82.5407,-11.9317 -27.5788,-6.4884 -46.674,-8.3284 -42.4337,-4.088 9.6809,9.6808 100.521,41.9141 118.122,41.9141 9.9121,0 13.095,9.9935 13.095,41.1144 0,27.3362 7.0025,53.9535 20.8969,79.4278 52.1651,95.6407 50.6641,87.3597 35.6274,196.5564 -7.5248,54.6484 -15.4776,116.7483 -17.6725,138.0012 l -3.9912,38.6404 12.419,-27.3455 c 14.5752,-32.0943 42.4062,-141.5046 53.1102,-208.7914 l 7.5135,-47.2274 15.8858,47.2274 c 22.0876,65.6658 25.8185,69.2655 31.1458,30.054 l 4.6672,-34.347 13.8954,55.8139 13.8953,55.8139 0.7584,-60.3828 c 0.4141,-33.2104 -4.4887,-80.6094 -10.9012,-105.3307 l -11.6597,-44.9481 22.3931,-4.7463 c 99.2274,-21.0308 149.6054,-63.152 215.5956,-180.2613 41.1822,-73.0851 54.9199,-89.5341 107.3347,-128.5133 l 60.1074,-44.7012 22.1639,15.6568 c 27.93,19.7313 88.2955,109.011 107.232,158.5953 l 14.3907,37.6824 -36.2223,70.8741 c -107.6435,210.6196 -271.3954,393.3957 -414.4265,462.573 -41.6834,20.16 -61.6766,33.9543 -53.6673,37.028 19.997,7.6738 15.3777,31.8218 -20.9356,109.4365 -36.3304,77.6508 -67.4815,190.543 -92.1437,333.9268 -12.8508,74.7175 -15.5358,140.1687 -15.6729,382.112 -0.081,160.5729 3.3087,367.3728 7.5544,459.5552 6.6395,144.1507 5.6251,180.1978 -7.2489,257.6032 -26.1385,157.1557 -113.1126,390.3807 -175.9817,471.9002 l -16.3925,21.2566 -4.4726,-21.2566 z m 28.3307,-640.4042 c 0.6653,-247.0779 -4.3687,-328.1451 -43.1318,-694.6299 -14.4864,-136.9594 -24.7504,-266.4652 -22.8094,-287.7911 6.5202,-71.6363 67.2772,-138.2439 187.8603,-205.9492 56.94,-31.9707 95.5255,-77.0086 120.0904,-140.1724 28.4458,-73.1454 25.4469,-77.2974 -13.4958,-18.6831 -52.3593,78.8099 -102.0672,129.2815 -154.9229,157.3024 -38.8744,20.6091 -51.8646,22.7733 -137.3882,22.8906 -51.95,0.081 -111.6255,-2.934 -132.6122,-6.6778 -37.3135,-6.6573 -37.8255,-6.441 -23.1594,9.7643 8.2487,9.1146 37.967,26.8803 66.0412,39.4795 l 51.0433,22.9071 -13.9868,27.0475 c -24.7585,47.8782 -23.7409,119.644 4.5338,319.7748 45.9194,325.0134 94.2881,805.6822 95.9124,953.1331 0.4572,41.5893 2.9355,54.8166 8.0416,42.9338 4.059,-9.4453 7.6512,-118.044 7.9835,-241.3296 z m 90.0242,-648.83 c -5.0239,-73.625 -3.0022,-93.4291 17.8963,-175.3137 18.775,-73.567 22.733,-105.193 19.4887,-155.7388 -4.9894,-77.7411 -18.9989,-97.9109 -20.6618,-29.7458 -0.6539,26.8442 -15.5567,102.7643 -33.1163,168.7108 -33.8946,127.2963 -33.6978,122.701 -11.7839,274.8978 l 11.0992,77.0893 11.3708,-38.4489 c 8.0347,-27.169 9.7089,-62.7981 5.707,-121.4507 z m 711.0084,-1369.8354 c -16.8309,-26.1294 -17.4386,-29.5495 -4.2929,-24.1449 8.4228,3.4637 22.0768,8.2412 30.3416,10.6179 17.8258,5.1256 18.7251,11.4267 4.2929,30.0889 -9.4986,12.284 -12.9875,10.3796 -30.3416,-16.5619 z m 2.2809,-51.1702 c -94.643,-63.073 -160.013,-137.9222 -87.8755,-100.6183 36.0518,18.6427 75.1488,29.4101 75.1488,20.6956 0,-3.8809 -8.694,-9.3253 -19.3205,-12.0974 -10.6259,-2.773 -30.155,-13.8178 -43.3974,-24.5449 -23.7764,-19.2592 -23.9109,-19.9024 -10.7335,-51.4278 7.3392,-17.55857 13.3441,-43.76212 13.3441,-58.23032 0,-35.57481 17.168,-39.66661 55.9645,-13.33872 50.323,34.15004 150.1179,60.13793 150.1179,39.0927 0,-4.7227 -5.6854,-8.58704 -12.6352,-8.58704 -20.054,0 -103.3913,-39.22706 -146.8308,-69.11374 l -39.7392,-27.34173 5.7962,-82.72034 c 5.2374,-74.75192 -0.3388,-130.7432 -17.4601,-175.36429 -3.7573,-9.79174 3.2415,-19.2393 23.3225,-31.48241 54.1298,-33.00065 84.1962,-15.25825 93.776,55.33844 12.1942,89.85948 56.6125,151.94603 117.4029,164.10425 30.2921,6.05867 54.2863,-13.74478 47.6055,-39.29072 -2.4816,-9.49477 -22.4249,-34.6771 -44.3162,-55.96064 -33.829,-32.89038 -37.0419,-38.69738 -21.4099,-38.70167 26.7463,0 101.8359,71.23821 118.208,112.15578 20.2423,50.59046 8.0567,84.41456 -68.2786,189.51835 -35.5597,48.9609 -79.9333,120.8989 -98.6089,159.8614 -18.675,38.962 -38.8899,70.8407 -44.9207,70.8407 -6.0311,0 -26.3536,-10.2548 -45.1599,-22.7872 z m 117.9471,-411.35983 c -10.6017,-7.42527 -26.5488,-27.75733 -35.438,-45.18201 -18.2669,-35.80598 -38.3027,-104.25984 -32.2791,-110.28358 2.1869,-2.18789 27.7262,24.23514 56.7524,58.71816 38.3134,45.51701 52.0834,68.42644 50.2538,83.60994 -3.184,26.41875 -14.7888,30.29918 -39.2891,13.13749 z"
     id="path817"
     inkscape:connector-curvature="0" />
</svg>
